<?xml version="1.0" standalone="no"?>
<!DOCTYPE svg PUBLIC "-//W3C//DTD SVG 20010904//EN"
 "http://www.w3.org/TR/2001/REC-SVG-20010904/DTD/svg10.dtd">
<svg version="1.0" xmlns="http://www.w3.org/2000/svg"
 width="1515.000000pt" height="1515.000000pt" viewBox="0 0 1515.000000 1515.000000"
 preserveAspectRatio="xMidYMid meet">
<metadata>
Created by potrace 1.14, written by Peter Selinger 2001-2017
</metadata>
<g transform="translate(0.000000,1515.000000) scale(0.100000,-0.100000)"
fill="#000000" stroke="none">
<path d="M4624 13001 c-22 -4 -61 -19 -86 -34 -74 -43 -101 -110 -142 -350 -3
-15 -10 -53 -15 -85 -6 -31 -13 -74 -17 -96 -3 -21 -7 -48 -10 -59 -2 -12 -6
-39 -9 -62 -15 -99 -36 -181 -52 -197 -10 -10 -50 -25 -88 -33 -489 -110 -830
-223 -1045 -348 -41 -24 -113 -66 -160 -94 -131 -76 -182 -86 -280 -53 -56 19
-160 82 -202 123 -53 51 -175 147 -215 169 -61 33 -104 40 -168 26 -64 -14
-96 -38 -294 -233 -200 -197 -739 -737 -782 -785 -53 -58 -78 -125 -74 -191 4
-64 20 -100 80 -179 23 -30 74 -102 113 -160 39 -58 92 -134 118 -169 37 -50
48 -75 52 -112 4 -43 -2 -60 -61 -176 -106 -209 -168 -363 -253 -628 -62 -193
-82 -273 -89 -352 -6 -68 -10 -107 -20 -193 -6 -46 -37 -120 -64 -153 -34 -40
-135 -86 -221 -101 -19 -3 -44 -8 -56 -10 -12 -2 -57 -7 -100 -11 -43 -4 -90
-8 -104 -10 -14 -2 -49 -7 -77 -10 -154 -17 -249 -75 -283 -175 -19 -52 -19
-90 -17 -775 2 -706 2 -721 23 -765 38 -82 124 -133 260 -154 21 -4 120 -20
219 -37 99 -17 193 -33 209 -35 342 -56 367 -63 404 -113 11 -15 46 -93 77
-172 31 -79 92 -216 135 -304 66 -135 101 -199 205 -373 13 -21 36 -58 93
-145 70 -108 68 -123 -49 -287 -53 -74 -126 -180 -164 -235 -38 -55 -117 -168
-177 -251 -122 -171 -139 -206 -140 -280 -1 -102 4 -108 546 -650 526 -526
544 -541 637 -548 70 -5 118 15 239 101 46 33 307 217 494 348 102 72 202 140
223 152 67 40 114 30 258 -52 181 -104 447 -219 705 -305 85 -28 169 -60 186
-71 38 -23 58 -74 74 -186 6 -45 13 -91 15 -103 2 -12 13 -74 25 -138 11 -64
22 -130 25 -147 15 -83 26 -143 30 -170 3 -16 8 -41 11 -53 2 -13 7 -43 10
-65 12 -93 47 -180 89 -223 71 -71 52 -69 850 -69 654 0 714 1 761 18 59 21
105 64 133 127 18 41 56 227 67 325 2 22 6 46 9 53 3 8 14 73 25 145 43 275
51 320 67 350 23 46 69 67 198 93 71 14 428 130 520 169 17 7 46 18 65 26 19
7 102 53 184 102 173 104 240 136 299 140 119 10 228 -46 472 -243 293 -238
371 -261 514 -154 73 55 974 961 1005 1012 54 87 44 165 -41 336 -19 37 -32
70 -30 73 3 2 139 6 303 9 420 6 611 12 949 30 211 11 271 14 310 19 22 2 94
7 160 10 166 8 182 11 189 38 3 12 -1 32 -10 44 -12 19 -24 23 -72 24 -31 0
-68 2 -82 4 -14 1 -68 6 -120 9 -52 4 -124 9 -160 11 -125 9 -371 22 -585 30
-44 2 -269 6 -500 9 -463 7 -506 9 -557 30 -41 18 -105 76 -146 134 -72 102
-65 196 29 385 43 86 68 114 120 141 l48 23 853 2 c469 0 941 3 1048 5 577 14
866 23 1280 41 225 10 427 31 569 60 30 6 40 15 18 16 -10 1 -20 2 -24 3 -5 1
-37 6 -73 10 -36 5 -72 10 -80 11 -57 11 -458 38 -730 50 -421 18 -973 32
-1580 41 -398 5 -1891 5 -2240 -1 -379 -5 -894 -16 -1010 -20 -58 -2 -188 -6
-290 -10 -102 -3 -216 -8 -255 -10 -38 -2 -126 -6 -195 -9 -69 -4 -150 -8
-180 -11 -30 -2 -93 -7 -140 -10 -47 -3 -105 -8 -130 -11 -25 -3 -65 -7 -90
-9 -98 -10 -200 -28 -200 -35 0 -4 30 -11 68 -15 37 -4 76 -8 87 -10 11 -2 47
-7 80 -10 33 -4 78 -8 100 -10 141 -15 577 -34 882 -38 l32 0 -20 -28 c-21
-30 -140 -152 -179 -184 -58 -47 -149 -114 -205 -149 -33 -21 -76 -49 -95 -61
-264 -170 -630 -314 -940 -369 -130 -23 -147 -25 -260 -33 -243 -16 -459 -2
-678 43 -42 9 -85 17 -94 19 -163 32 -452 138 -685 251 -593 287 -1047 726
-1356 1314 -131 249 -246 584 -291 845 -14 82 -26 167 -33 230 -10 89 -10 448
0 540 10 92 44 291 57 335 6 19 12 47 15 61 6 33 77 249 103 314 32 81 103
224 153 312 73 127 120 194 249 357 46 58 198 210 285 285 213 183 470 338
725 437 194 75 466 142 645 159 39 4 79 9 90 11 29 6 382 6 430 0 22 -3 69 -8
105 -11 36 -4 83 -10 105 -15 22 -5 56 -11 75 -14 45 -7 77 -14 98 -20 9 -3
28 -7 42 -10 46 -8 238 -66 332 -100 165 -60 296 -121 461 -214 l77 -44 -32
-43 c-18 -23 -107 -141 -198 -261 -90 -120 -168 -220 -172 -222 -4 -2 -8 -8
-8 -12 0 -5 -31 -53 -68 -107 -293 -419 -605 -929 -850 -1393 -81 -153 -77
-151 -112 -63 -35 88 -164 345 -206 410 -133 208 -191 281 -333 421 -345 341
-723 505 -1136 495 -172 -4 -157 -2 -234 -20 -172 -38 -278 -148 -315 -326
-35 -168 27 -322 181 -450 98 -82 211 -195 344 -343 61 -68 199 -253 271 -364
37 -58 71 -110 76 -116 4 -5 12 -19 18 -30 6 -10 37 -64 69 -119 149 -258 337
-681 445 -1005 43 -131 109 -343 115 -372 47 -228 166 -439 320 -565 89 -73
233 -135 352 -151 345 -47 643 129 803 473 18 39 81 216 140 395 120 363 260
748 324 893 16 36 28 67 32 82 5 21 145 340 211 485 20 41 49 104 65 140 69
150 297 600 356 703 16 27 46 39 37 15 -4 -13 -44 -228 -51 -278 -2 -20 -57
-321 -77 -430 -5 -26 -17 -91 -23 -125 -6 -34 15 -80 45 -98 24 -14 56 -17
183 -17 134 0 157 2 185 20 48 29 52 40 78 185 7 44 36 204 64 357 28 152 53
293 57 313 9 61 13 77 18 83 3 2 85 5 183 5 202 0 228 6 262 67 11 20 23 61
26 91 4 30 9 61 11 69 13 38 15 103 4 129 -21 53 -44 56 -407 56 -189 0 -333
4 -333 9 0 5 53 94 118 198 l117 189 270 -6 c149 -3 349 -8 445 -10 1029 -23
3672 -24 4650 0 358 8 662 16 770 20 63 3 203 7 310 10 107 3 242 8 300 10 58
2 209 7 335 10 127 4 248 11 270 17 50 13 107 41 124 62 12 14 9 16 -25 17
-22 1 -50 3 -64 4 -14 2 -88 6 -165 10 -77 3 -174 8 -215 10 -317 17 -350 18
-795 30 -936 26 -2575 35 -4015 24 -271 -2 -417 1 -442 8 -56 17 -105 60 -157
137 -82 124 -85 148 -26 221 44 54 165 233 165 243 0 13 73 79 105 95 17 8 46
18 65 22 19 3 573 8 1230 10 657 2 1287 6 1400 9 356 8 641 16 750 21 58 2
175 7 260 10 178 6 343 17 490 30 25 2 81 7 125 10 120 8 133 12 128 39 -3 12
-10 23 -16 23 -23 1 -153 13 -192 18 -22 3 -76 7 -120 10 -44 3 -105 7 -135
10 -356 32 -1164 47 -2659 49 -1086 2 -1134 3 -1147 20 -12 17 -8 24 36 69 70
71 94 126 94 212 1 61 -4 78 -33 132 -20 37 -66 95 -112 141 l-78 78 102 1
c168 1 676 14 762 18 239 13 284 17 420 30 28 3 75 7 105 10 30 3 64 7 75 9
11 2 45 7 75 11 30 4 62 9 70 10 8 1 40 6 70 11 30 4 57 8 60 9 3 1 29 5 57 9
49 7 79 22 50 23 -7 1 -64 8 -127 16 -111 15 -165 21 -295 32 -279 23 -450 30
-1000 40 -517 10 -638 16 -650 35 -7 12 215 225 464 445 25 22 51 45 57 50 6
6 32 28 59 50 168 139 185 156 185 189 0 17 -7 42 -16 55 -16 22 -21 23 -88
18 -39 -4 -84 -9 -101 -12 -16 -3 -70 -13 -120 -21 -127 -23 -246 -51 -345
-81 -47 -15 -89 -28 -95 -29 -37 -8 -223 -86 -344 -144 l-143 -70 -56 50 c-77
68 -133 95 -202 94 -85 -1 -98 -9 -648 -398 -245 -173 -315 -215 -349 -210 -7
1 -19 2 -26 3 -7 0 -76 39 -154 86 -265 157 -524 277 -798 370 -64 22 -121 48
-137 62 -24 23 -46 83 -54 148 -2 20 -53 313 -60 350 -6 29 -32 171 -49 273
-28 163 -64 230 -146 274 l-44 23 -715 1 c-393 1 -733 -1 -756 -5z"/>
<path d="M11390 9221 c-46 -14 -94 -43 -127 -77 -62 -64 -78 -112 -118 -356
-6 -34 -15 -83 -22 -123 -27 -151 7 -237 112 -280 32 -14 79 -17 274 -17 130
-1 252 3 271 7 77 17 162 81 197 148 27 53 51 195 41 246 -10 57 -51 109 -108
139 -41 21 -57 22 -242 22 -161 0 -198 3 -198 14 0 11 47 13 257 14 298 1 300
2 319 88 23 104 23 132 2 159 l-19 25 -307 -1 c-169 0 -318 -4 -332 -8z m328
-566 c3 -19 -3 -20 -150 -20 -84 0 -152 4 -150 8 1 4 2 13 2 20 0 9 35 12 148
12 139 0 147 -1 150 -20z"/>
<path d="M8197 8926 c-39 -26 -63 -74 -72 -140 -3 -27 -8 -52 -9 -55 -2 -3 -7
-30 -10 -60 -4 -29 -8 -56 -10 -60 -2 -3 -7 -24 -10 -46 -4 -22 -13 -71 -21
-110 -7 -38 -16 -87 -19 -108 -4 -21 -22 -127 -42 -235 -39 -216 -40 -277 -6
-354 28 -65 82 -120 149 -154 l58 -29 435 0 435 0 75 36 c144 69 239 188 265
328 3 14 7 37 10 51 5 23 17 92 30 165 5 28 8 47 20 105 2 14 7 40 10 58 12
73 16 100 30 172 8 41 16 85 19 96 4 22 10 55 21 129 4 22 11 58 16 80 14 64
11 83 -20 117 l-29 33 -149 1 c-90 1 -162 -2 -183 -9 -48 -17 -75 -62 -90
-154 -14 -89 -13 -83 -45 -258 -13 -71 -27 -146 -30 -165 -3 -19 -10 -57 -15
-85 -6 -27 -19 -99 -30 -159 -11 -59 -22 -112 -25 -116 -2 -4 -117 -7 -255 -7
-222 0 -250 2 -250 16 0 9 7 52 15 95 8 44 18 93 21 110 19 111 49 275 59 326
2 14 7 41 10 60 3 19 8 42 10 50 2 8 6 31 9 50 3 19 10 59 16 89 16 85 -5 136
-59 150 -20 5 -96 9 -169 9 -119 -1 -136 -3 -165 -22z"/>
<path d="M9766 8930 c-42 -21 -64 -57 -76 -120 -5 -30 -12 -68 -15 -85 -3 -16
-7 -43 -10 -60 -15 -80 -35 -193 -40 -220 -2 -16 -7 -40 -9 -51 -2 -12 -7 -37
-10 -55 -8 -50 -16 -91 -21 -119 -12 -58 -16 -80 -30 -165 -9 -49 -22 -124
-30 -165 -23 -121 -25 -132 -32 -197 -6 -59 -5 -63 26 -93 l31 -31 169 3 c165
3 170 4 196 28 30 28 43 55 51 109 4 20 7 41 8 46 2 6 6 33 11 60 13 84 7 81
154 80 72 -1 132 -3 134 -6 2 -2 37 -67 76 -145 53 -102 81 -145 101 -158 25
-14 57 -17 227 -15 l197 2 28 28 c45 45 39 79 -42 219 -70 121 -78 140 -61
140 4 0 37 27 73 59 93 86 142 190 162 346 2 11 6 34 9 50 4 17 9 44 12 60 2
17 8 48 12 70 33 185 -54 335 -227 391 -14 4 -254 8 -535 9 -436 0 -514 -2
-539 -15z m820 -412 c-6 -28 -24 -122 -30 -162 -10 -56 -12 -57 -257 -54
l-226 3 22 113 c12 61 19 114 17 117 -3 3 104 5 237 5 l241 0 -4 -22z"/>
<path d="M12191 8934 c-47 -20 -67 -56 -85 -156 -9 -51 -21 -113 -26 -138 -6
-25 -12 -58 -15 -75 -2 -16 -11 -70 -20 -120 -9 -49 -18 -101 -20 -115 -2 -14
-8 -45 -13 -70 -6 -25 -13 -63 -16 -84 -4 -21 -15 -89 -26 -150 -11 -61 -23
-124 -25 -141 -6 -34 -13 -68 -21 -105 -3 -14 -8 -53 -11 -87 -5 -59 -4 -63
25 -93 l31 -31 558 3 558 3 70 34 c85 42 157 108 199 181 17 30 32 59 33 65
50 202 55 307 19 378 -17 36 -20 49 -11 57 31 26 65 113 83 213 32 175 13 257
-77 348 -95 95 -80 93 -675 94 -360 0 -516 -3 -535 -11z m817 -415 c1 -9 -6
-26 -16 -39 -18 -23 -22 -23 -188 -22 -93 1 -195 2 -227 2 -62 0 -62 1 -41 68
3 10 55 12 236 10 203 -3 233 -5 236 -19z m-56 -479 c-7 -52 -13 -53 -267 -53
-129 0 -238 3 -241 6 -4 3 -4 21 0 40 l6 34 253 -1 252 -1 -3 -25z"/>
<path d="M13933 8935 c-84 -23 -153 -63 -215 -126 -58 -57 -114 -154 -124
-216 -2 -15 -9 -50 -14 -78 -12 -62 -19 -100 -26 -145 -3 -19 -14 -80 -25
-135 -10 -55 -21 -118 -25 -140 -3 -22 -12 -69 -19 -103 -41 -198 39 -350 215
-411 8 -3 218 -6 466 -8 429 -3 454 -2 509 17 124 43 222 126 277 233 27 54
59 188 82 342 3 22 8 51 11 65 17 84 51 271 64 360 20 134 -58 273 -187 333
-46 21 -59 22 -492 24 -361 2 -455 0 -497 -12z m682 -431 c1 -16 -11 -92 -26
-169 -15 -77 -30 -158 -34 -180 -3 -22 -11 -67 -18 -100 l-12 -60 -283 -3
-282 -2 4 22 c10 46 26 134 32 173 3 22 7 48 10 57 7 23 9 37 29 163 10 61 23
115 30 120 7 6 114 9 281 9 l269 -2 0 -28z"/>
<path d="M6899 7325 c-77 -15 -145 -52 -205 -112 -66 -64 -97 -125 -118 -228
-39 -195 -106 -583 -106 -617 0 -94 71 -201 160 -242 43 -20 62 -21 525 -24
264 -2 490 0 502 3 48 12 67 51 89 181 2 16 7 40 9 54 3 14 8 39 10 55 3 17
10 53 15 80 5 28 11 61 14 75 2 14 11 63 20 110 25 135 25 141 19 170 -10 52
-32 55 -349 54 -159 -1 -297 -2 -306 -3 -23 -1 -45 -37 -53 -86 -11 -69 -17
-99 -25 -144 -10 -52 3 -87 34 -93 11 -2 74 -4 139 -3 l118 1 -6 -45 c-3 -25
-8 -48 -11 -50 -6 -6 -455 -9 -472 -3 -13 4 -12 26 4 107 6 28 32 173 38 215
4 19 11 55 16 80 5 25 11 60 14 78 2 19 8 37 11 40 4 4 192 7 419 8 389 1 415
2 439 20 30 22 40 46 56 124 27 141 25 171 -12 192 -29 16 -910 19 -988 3z"/>
<path d="M8133 7333 c-22 -4 -73 -56 -73 -73 0 -5 -20 -118 -44 -252 -24 -134
-47 -261 -50 -283 -4 -22 -8 -47 -11 -55 -2 -8 -6 -33 -10 -54 -3 -21 -7 -48
-10 -60 -3 -12 -7 -32 -9 -46 -5 -28 -32 -179 -41 -225 -4 -16 -9 -55 -11 -85
-5 -47 -3 -58 16 -78 22 -23 26 -23 177 -20 l155 3 23 29 c13 17 27 48 31 70
3 23 8 48 9 56 1 8 6 35 10 60 13 86 0 80 153 80 l137 0 70 -136 c39 -75 80
-143 91 -151 16 -10 63 -13 199 -13 173 1 178 2 201 25 38 38 34 50 -64 218
-29 49 -52 92 -52 96 0 4 15 15 33 26 50 30 121 109 149 167 15 31 35 105 48
178 12 69 25 134 27 145 2 11 6 48 8 82 8 123 -45 217 -153 270 l-57 28 -465
1 c-256 0 -475 -1 -487 -3z m736 -342 c16 -1 12 -46 -15 -186 -13 -65 -14 -65
-261 -65 -209 0 -224 1 -219 18 6 18 15 69 21 112 7 58 18 106 25 115 7 8 374
13 449 6z"/>
<path d="M10024 7329 c-93 -12 -42 55 -622 -823 -211 -321 -223 -346 -187
-386 17 -18 31 -20 186 -20 98 0 178 4 191 11 13 5 39 33 58 60 18 27 43 51
54 54 12 2 136 3 277 3 l257 -1 12 -41 c26 -89 19 -86 210 -86 178 0 184 2
210 49 12 24 6 56 -37 186 -20 61 -38 115 -39 120 -1 6 -16 51 -32 100 -17 50
-76 232 -132 405 -56 173 -110 323 -118 333 -9 11 -25 23 -35 29 -23 12 -182
17 -253 7z m75 -656 c17 -55 31 -105 31 -110 0 -9 -205 -11 -214 -2 -3 3 27
55 67 116 39 61 75 108 78 105 4 -4 21 -53 38 -109z"/>
<path d="M10966 7319 c-32 -25 -43 -46 -51 -90 -3 -19 -8 -45 -10 -59 -4 -21
-70 -385 -90 -495 -3 -16 -8 -46 -11 -65 -11 -62 -14 -83 -34 -190 -29 -155
-30 -160 -36 -220 -5 -47 -3 -58 15 -77 l22 -23 442 0 c342 0 453 3 492 14
148 40 263 165 294 316 12 60 38 200 45 240 2 14 11 63 20 110 8 47 18 103 21
125 4 22 10 55 15 73 5 18 7 61 6 97 -6 124 -83 222 -199 252 -39 10 -155 13
-483 13 -422 0 -432 0 -458 -21z m720 -379 c-3 -26 -8 -53 -10 -61 -3 -8 -7
-27 -10 -44 -2 -16 -11 -70 -20 -120 -9 -49 -18 -103 -21 -120 -19 -107 -27
-133 -43 -137 -14 -3 -351 -3 -390 1 -8 1 -11 8 -8 19 3 9 7 28 10 42 2 14 9
52 15 85 6 33 13 74 16 90 25 150 49 272 56 281 6 7 76 11 209 11 l201 0 -5
-47z"/>
<path d="M12332 7323 c-16 -8 -35 -27 -41 -41 -10 -25 -38 -168 -67 -341 -3
-18 -8 -43 -10 -55 -2 -11 -13 -70 -24 -131 -10 -60 -24 -135 -29 -165 -6 -30
-13 -68 -16 -85 -2 -16 -7 -41 -10 -55 -5 -25 -20 -110 -29 -165 -3 -16 -9
-51 -14 -76 -9 -49 -2 -73 27 -96 12 -9 146 -12 548 -13 527 0 532 0 552 21
10 11 22 37 25 57 4 21 14 76 23 123 18 97 13 136 -20 148 -12 4 -176 7 -364
7 -189 -1 -343 0 -343 1 0 1 5 24 10 50 l11 48 282 0 c159 -1 292 3 304 8 26
11 37 40 58 152 19 101 19 139 0 155 -11 9 -87 12 -300 12 l-285 0 6 47 c3 25
8 49 11 54 2 4 165 7 362 7 429 0 396 -11 417 140 3 24 7 47 9 50 2 3 7 32 10
63 12 104 55 97 -550 96 -440 -1 -527 -3 -553 -16z"/>
<path d="M13624 7333 c-12 -2 -32 -16 -46 -31 -23 -25 -43 -108 -74 -312 -2
-14 -7 -36 -10 -50 -3 -14 -8 -38 -10 -55 -3 -16 -9 -52 -15 -80 -5 -27 -12
-68 -15 -90 -3 -22 -9 -56 -14 -75 -5 -19 -12 -55 -15 -80 -3 -25 -8 -52 -10
-60 -2 -8 -7 -28 -10 -45 -2 -16 -15 -89 -28 -161 -35 -190 -31 -194 165 -194
192 0 206 8 228 130 6 36 15 89 21 118 l10 52 133 0 c95 0 137 -4 144 -12 5
-7 38 -68 73 -136 34 -68 72 -130 85 -139 19 -12 56 -14 204 -11 179 3 182 3
202 28 27 34 21 56 -56 188 -36 62 -66 116 -66 120 0 4 14 16 32 27 51 30 122
109 150 167 14 29 33 96 42 148 10 52 24 132 33 178 25 133 8 214 -61 290 -20
22 -60 50 -89 63 l-52 24 -465 1 c-256 1 -475 -1 -486 -3z m742 -346 c7 -6 -3
-85 -21 -182 -13 -65 -15 -65 -263 -65 -185 0 -223 2 -219 14 3 7 13 60 22
117 10 57 23 109 30 114 14 12 439 14 451 2z"/>
</g>
</svg>
